# xmcd
#
# Track frame offsets: 
#        150
#        10889
#        22654
#        34640
#        46138
#        55989
#        72032
#        84617
#        95918
#        107959
#        122838
#        134338
#        147253
#
# Disc length: 2165 seconds
#
# Revision: 0
# Processed by: cddbd v1.5.2PL0 Copyright (c) Steve Scherf et al.
# Submitted via: ExactAudioCopy v1.0b3
#
DISCID=ad08730d
DTITLE=Go Jane Go - Go Jane Go
DYEAR=2012
DGENRE=Americana
TTITLE0=Somewhere Beyond the Roses
TTITLE1=When I'm Not Thinking About You
TTITLE2=Solitary Wave
TTITLE3=Go Jane Go
TTITLE4=Pretty Jackals
TTITLE5=Anybody's Game
TTITLE6=Blue Ridge
TTITLE7=I Live In Fear
TTITLE8=I'm Going Home
TTITLE9=Wonder
TTITLE10=Tell Me Mama
TTITLE11=Blue Heart of Texas
TTITLE12=Moon Over Melbourne [live]
EXTD=
EXTT0=
EXTT1=
EXTT2=
EXTT3=
EXTT4=
EXTT5=
EXTT6=
EXTT7=
EXTT8=
EXTT9=
EXTT10=
EXTT11=
EXTT12=
PLAYORDER=
